<svg viewBox="0 0 310.09 203.53" xmlns="http://www.w3.org/2000/svg"><g transform="matrix(2.8449 0 0 2.9076 -1524.85 -966.37)"><path d="m585 332.36h11v70h-11z" fill="#f10002"/><path d="m536 361.36h109v12h-109z" fill="#f10002"/><g transform="translate(61 -105)"><path d="m487 437.36 35 25v-25z" fill="#092c70"/><path d="m475 443.36v21h31z" fill="#092c70"/><path d="m475 437.36v3l36 24h5z" fill="#f10002"/></g><g transform="matrix(-1 0 0 1 1120 -105)"><path d="m487 437.36 35 25v-25z" fill="#092c70"/><path d="m475 443.36v21h31z" fill="#092c70"/><path d="m475 437.36v3l36 24h5z" fill="#f10002"/></g><g transform="matrix(-1 0 0 -1 1120 839.72)"><path d="m487 437.36 35 25v-25z" fill="#092c70"/><path d="m475 443.36v21h31z" fill="#092c70"/><path d="m475 437.36v3l36 24h5z" fill="#f10002"/></g><g transform="matrix(-1 0 0 1 1058 -62)"><path d="m487 437.36 35 25v-25z" fill="#092c70"/><path d="m475 443.36v21h31z" fill="#092c70"/><path d="m475 437.36v3l36 24h5z" fill="#f10002"/></g></g></svg>