<?xml version="1.0" standalone="no"?>
<!DOCTYPE svg PUBLIC "-//W3C//DTD SVG 20010904//EN"
 "http://www.w3.org/TR/2001/REC-SVG-20010904/DTD/svg10.dtd">
<svg version="1.0" xmlns="http://www.w3.org/2000/svg"
 width="512.000000pt" height="512.000000pt" viewBox="0 0 512.000000 512.000000"
 preserveAspectRatio="xMidYMid meet">

<g transform="translate(0.000000,512.000000) scale(0.100000,-0.100000)"
fill="#000000" stroke="none">
<path d="M2325 5109 c-885 -84 -1662 -619 -2055 -1414 -127 -257 -199 -482
-242 -760 -31 -200 -31 -550 0 -750 43 -278 115 -503 242 -760 250 -506 649
-905 1155 -1155 257 -127 482 -199 760 -242 200 -31 550 -31 750 0 278 43 503
115 760 242 506 250 905 649 1155 1155 93 188 136 302 185 488 90 341 108 727
49 1061 -23 135 -66 181 -167 181 -75 0 -112 -23 -151 -94 -34 -64 -87 -116
-149 -148 -72 -37 -187 -39 -265 -4 -65 29 -142 111 -167 177 -41 109 -93 142
-202 128 -38 -5 -113 -8 -168 -8 -166 2 -301 61 -425 184 -123 124 -182 259
-184 425 0 55 3 132 8 170 7 63 6 76 -12 111 -23 46 -45 62 -116 89 -66 25
-148 102 -177 167 -35 78 -33 193 4 265 32 62 84 115 148 149 71 39 94 76 94
151 0 69 -19 104 -72 135 -87 51 -495 82 -758 57z m312 -326 c-3 -10 -17 -46
-32 -80 -74 -177 -50 -401 58 -565 44 -65 128 -150 182 -185 l40 -25 1 -111
c0 -136 26 -252 83 -373 102 -216 244 -361 456 -465 134 -65 249 -93 392 -93
l111 -1 26 -42 c37 -57 151 -162 217 -200 169 -95 386 -106 556 -28 30 14 60
25 66 25 16 0 1 -295 -22 -435 -24 -141 -76 -337 -121 -450 -266 -674 -832
-1180 -1520 -1359 -221 -57 -327 -70 -570 -70 -243 0 -349 13 -570 70 -776
202 -1392 818 -1594 1594 -57 221 -70 327 -70 570 0 243 13 349 70 570 223
859 954 1515 1834 1644 128 19 165 22 304 24 99 2 108 0 103 -15z"/>
<path d="M1823 4142 c-109 -39 -178 -112 -210 -221 -29 -102 4 -228 82 -306
122 -121 328 -121 450 0 121 122 121 328 0 450 -82 81 -219 114 -322 77z"/>
<path d="M1183 2862 c-109 -39 -178 -112 -210 -221 -29 -102 4 -228 82 -306
122 -121 328 -121 450 0 121 122 121 328 0 450 -82 81 -219 114 -322 77z"/>
<path d="M2655 2546 c-101 -44 -125 -178 -46 -257 65 -65 157 -65 222 0 124
124 -15 327 -176 257z"/>
<path d="M3935 1906 c-101 -44 -125 -178 -46 -257 65 -65 157 -65 222 0 124
124 -15 327 -176 257z"/>
<path d="M1695 1586 c-101 -44 -125 -178 -46 -257 65 -65 157 -65 222 0 124
124 -15 327 -176 257z"/>
<path d="M2783 1582 c-109 -39 -178 -112 -210 -221 -41 -144 35 -304 176 -370
45 -21 71 -26 131 -26 129 0 234 67 289 184 54 115 27 264 -64 356 -82 81
-219 114 -322 77z"/>
</g>
</svg>
